# Blender 3.3.1
# www.blender.org
mtllib radio.mtl
o Cylinder
v 0.000000 0.297227 -0.445717
v 0.000000 0.345966 -0.445717
v 0.000000 0.297227 -0.535273
v 0.000000 0.345966 -0.495541
v 0.057565 0.297227 -0.514321
v 0.032027 0.345966 -0.483885
v 0.088195 0.297227 -0.461268
v 0.049068 0.345966 -0.454369
v 0.077558 0.297227 -0.400939
v 0.043149 0.345966 -0.420805
v 0.030630 0.297227 -0.361562
v 0.017041 0.345966 -0.398897
v -0.030630 0.297227 -0.361562
v -0.017041 0.345966 -0.398897
v -0.077558 0.297227 -0.400939
v -0.043149 0.345966 -0.420805
v -0.088195 0.297227 -0.461268
v -0.049067 0.345966 -0.454369
v -0.057565 0.297227 -0.514321
v -0.032027 0.345966 -0.483885
v 0.014504 0.345966 -0.463003
v 0.000000 0.345966 -0.468282
v 0.022222 0.345966 -0.449635
v 0.019542 0.345966 -0.434435
v 0.007718 0.345966 -0.424513
v -0.007718 0.345966 -0.424513
v -0.019542 0.345966 -0.434435
v -0.022222 0.345966 -0.449635
v -0.014504 0.345966 -0.463003
v 0.038556 0.737408 -0.663813
v 0.006529 0.737408 -0.652157
v 0.038556 0.737408 -0.636554
v 0.024051 0.737408 -0.631274
v 0.046504 0.753843 -0.684239
v -0.009870 0.753843 -0.663721
v 0.046504 0.753843 -0.636256
v 0.020973 0.753843 -0.626963
v -0.105908 0.707775 -0.291763
v -0.071826 0.707775 -0.291763
v -0.096585 0.707775 -0.317379
v -0.081149 0.707775 -0.317379
v -0.126148 0.727750 -0.276800
v -0.068039 0.727750 -0.276800
v -0.110252 0.727750 -0.320474
v -0.083935 0.727750 -0.320474
v 0.100000 0.107992 -0.397992
v 0.100000 -0.107992 -0.397992
v 0.100000 0.107992 0.030434
v 0.100000 -0.107992 0.030434
v -0.100000 0.300000 -0.590000
v -0.100000 -0.300000 -0.590000
v -0.100000 0.300000 0.590000
v -0.100000 -0.300000 0.590000
v 0.098195 -0.000000 0.326888
v 0.143722 0.000000 0.326888
v 0.098195 -0.000000 0.146888
v 0.143722 0.000000 0.249824
v 0.098195 -0.155885 0.236888
v 0.143722 -0.066739 0.288356
v 0.098195 -0.155885 0.416888
v 0.143722 -0.066739 0.365420
v 0.098195 -0.000000 0.506888
v 0.143722 0.000000 0.403952
v 0.098195 0.155885 0.416888
v 0.143722 0.066739 0.365420
v 0.098195 0.155885 0.236888
v 0.143722 0.066739 0.288356
v 0.099148 0.230277 -0.506266
v 0.121008 0.230072 -0.506827
v 0.098281 0.247665 -0.546388
v 0.120637 0.237517 -0.524004
v 0.098003 0.204218 -0.541373
v 0.120518 0.218916 -0.521858
v 0.098870 0.186830 -0.501251
v 0.120889 0.211471 -0.504680
v 0.100015 0.212888 -0.466144
v 0.121379 0.222628 -0.489649
v 0.100293 0.256335 -0.471159
v 0.121498 0.241229 -0.491796
v 0.099426 0.273724 -0.511281
v 0.121127 0.248673 -0.508974
v 0.096676 -0.148149 -0.488077
v 0.142356 -0.148286 -0.488453
v 0.098194 -0.138124 -0.511305
v 0.141911 -0.139377 -0.509010
v 0.098033 -0.163221 -0.508408
v 0.141769 -0.161638 -0.506440
v 0.098534 -0.173266 -0.485232
v 0.142213 -0.170547 -0.485883
v 0.099196 -0.158213 -0.464952
v 0.142800 -0.157196 -0.467896
v 0.099357 -0.133115 -0.467849
v 0.142942 -0.134935 -0.470465
v 0.098856 -0.123071 -0.491026
v 0.142498 -0.126026 -0.491022
v 0.100000 0.300000 -0.590000
v 0.100000 -0.300000 -0.590000
v 0.100000 0.300000 0.590000
v 0.100000 -0.300000 0.590000
vn -0.0000 -1.0000 -0.0000
vn -0.0000 1.0000 -0.0000
vn 0.2715 0.6081 -0.7460
vn 0.6875 0.6081 -0.3969
vn 0.7818 0.6081 0.1379
vn 0.5103 0.6081 0.6081
vn -0.0000 0.6081 0.7939
vn -0.5103 0.6081 0.6081
vn -0.7818 0.6081 0.1379
vn -0.6875 0.6081 -0.3969
vn -0.2715 0.6081 -0.7460
vn -0.0000 -0.2839 0.9588
vn -0.3207 -0.3472 -0.8812
vn -0.7313 -0.2979 0.6136
vn 0.3207 0.3472 0.8812
vn -0.7226 0.3318 0.6064
vn 0.9952 -0.0980 -0.0000
vn 0.3365 -0.1795 0.9244
vn 0.9002 -0.4354 -0.0000
vn -0.2415 -0.7080 -0.6637
vn 0.9368 0.0778 -0.3410
vn -0.9319 -0.1285 -0.3392
vn -0.0000 0.2839 -0.9588
vn 0.8918 0.3152 -0.3246
vn -0.0000 -0.5995 0.8003
vn -0.7713 -0.5712 -0.2807
vn -0.0000 -0.1531 -0.9882
vn -0.0000 -0.0000 1.0000
vn -1.0000 -0.0000 -0.0000
vn 1.0000 -0.0000 -0.0000
vn -0.0000 -0.0000 -1.0000
vn 0.8906 -0.2274 -0.3939
vn 0.8906 -0.4548 -0.0000
vn 0.8906 -0.2274 0.3939
vn 0.8906 0.2274 0.3939
vn 0.8906 0.4548 -0.0000
vn 0.8906 0.2274 -0.3939
vn -0.9996 0.0094 0.0257
vn 0.9996 -0.0094 -0.0257
vn 0.6846 -0.0879 -0.7236
vn 0.6901 -0.6585 -0.3003
vn 0.7090 -0.5771 0.4053
vn 0.7223 0.0747 0.6875
vn 0.7168 0.6453 0.2642
vn 0.6979 0.5640 -0.4414
vn -0.9978 -0.0012 -0.0657
vn 0.0488 -0.1148 -0.9922
vn -0.9971 -0.0750 -0.0110
vn 0.0511 -0.9159 -0.3981
vn -0.9947 -0.0645 0.0803
vn 0.0588 -0.8025 0.5937
vn -0.9930 0.0198 0.1169
vn 0.0643 0.1140 0.9914
vn -0.9937 0.0937 0.0621
vn 0.0620 0.9163 0.3958
vn -0.9961 0.0832 -0.0292
vn 0.0543 0.8009 -0.5963
vt 0.750000 0.250000
vt 0.748604 0.179514
vt 0.807854 0.199264
vt 0.750000 0.490000
vt 0.728854 0.199264
vt 0.807854 0.238764
vt 0.728854 0.238764
vt 0.748604 0.198474
vt 0.719545 0.269045
vt 0.766037 0.174200
vt 0.904269 0.433851
vt 0.799076 0.199264
vt 0.799076 0.238764
vt 0.760791 0.194038
vt 0.986354 0.291676
vt 0.790299 0.199264
vt 0.790299 0.238764
vt 0.767276 0.182806
vt 0.957846 0.130000
vt 0.781521 0.199264
vt 0.781521 0.238764
vt 0.765024 0.170034
vt 0.832085 0.024474
vt 0.772743 0.199264
vt 0.772743 0.238764
vt 0.755089 0.161697
vt 0.822862 0.269045
vt 0.781303 0.087626
vt 0.667915 0.024474
vt 0.763965 0.199264
vt 0.763965 0.238764
vt 0.802198 0.269045
vt 0.742119 0.161697
vt 0.750772 0.087626
vt 0.542154 0.130000
vt 0.755187 0.199264
vt 0.755187 0.238764
vt 0.732184 0.170034
vt 0.513646 0.291676
vt 0.746410 0.199264
vt 0.746410 0.238764
vt 0.729932 0.182806
vt 0.595731 0.433851
vt 0.737632 0.199264
vt 0.737632 0.238764
vt 0.736417 0.194038
vt 0.740208 0.269045
vt 0.737348 0.163758
vt 0.754123 0.186092
vt 0.748604 0.188101
vt 0.766037 0.149781
vt 0.757060 0.181005
vt 0.756040 0.175220
vt 0.751541 0.171445
vt 0.772951 0.110572
vt 0.745667 0.171445
vt 0.759124 0.110572
vt 0.741168 0.175220
vt 0.740148 0.181005
vt 0.743084 0.186092
vt 0.753044 0.145052
vt 0.719545 0.269045
vt 0.766037 0.174200
vt 0.250000 0.490000
vt 0.896202 0.223178
vt 0.740208 0.269045
vt 0.906078 0.164775
vt 0.737348 0.163758
vt 0.907664 0.223178
vt 0.766037 0.149781
vt 0.921992 0.157022
vt 0.250000 0.358693
vt 0.753044 0.145052
vt 0.914784 0.154399
vt 0.921992 0.170568
vt 0.250000 0.490000
vt 0.896202 0.223178
vt 0.906078 0.164775
vt 0.907664 0.223178
vt 0.921992 0.157022
vt 0.250000 0.358693
vt 0.914784 0.154399
vt 0.802198 0.269045
vt 0.750772 0.087626
vt 0.942050 0.223178
vt 0.913524 0.122545
vt 0.822862 0.269045
vt 0.930459 0.122545
vt 0.781303 0.087626
vt 0.953512 0.223178
vt 0.759124 0.110572
vt 0.918157 0.135273
vt 0.772951 0.110572
vt 0.925827 0.135273
vt 0.942050 0.223178
vt 0.913524 0.122545
vt 0.930459 0.122545
vt 0.953512 0.223178
vt 0.918157 0.135273
vt 0.925827 0.135273
vt 0.904394 0.655763
vt 0.690459 0.892364
vt 0.905720 0.360907
vt 0.691645 0.759752
vt 0.689118 0.651107
vt 0.546919 0.889023
vt 0.690444 0.356251
vt 0.548105 0.756410
vt 0.710038 0.776979
vt 0.713616 0.970690
vt 0.702710 0.712069
vt 0.463616 0.970690
vt 0.450835 0.689655
vt 0.452710 0.712069
vt 0.710038 0.943767
vt 0.711566 0.986315
vt 0.713616 0.720690
vt 0.461566 0.986315
vt 0.463616 0.720690
vt 0.450835 0.939655
vt 0.750000 0.250000
vt 0.114490 0.625558
vt 0.355585 0.705923
vt 0.750000 0.490000
vt 0.034125 0.705923
vt 0.355585 0.866653
vt 0.114490 0.702709
vt 0.034125 0.866653
vt 0.957846 0.370000
vt 0.302009 0.705923
vt 0.181305 0.664133
vt 0.302009 0.866653
vt 0.957846 0.130000
vt 0.248432 0.705923
vt 0.181305 0.586983
vt 0.248432 0.866653
vt 0.750000 0.010000
vt 0.194855 0.705923
vt 0.114490 0.548408
vt 0.194855 0.866653
vt 0.542154 0.130000
vt 0.141279 0.705923
vt 0.047676 0.586983
vt 0.141279 0.866653
vt 0.542154 0.370000
vt 0.087702 0.705923
vt 0.047676 0.664133
vt 0.087702 0.866653
vt 0.750000 0.250000
vt 0.613907 0.199777
vt 0.642255 0.209226
vt 0.750000 0.490000
vt 0.604458 0.209226
vt 0.642255 0.228124
vt 0.613907 0.208848
vt 0.604458 0.228124
vt 0.957846 0.370000
vt 0.635955 0.209226
vt 0.621763 0.204312
vt 0.635955 0.228124
vt 0.957846 0.130000
vt 0.629656 0.209226
vt 0.621763 0.195241
vt 0.629656 0.228124
vt 0.750000 0.010000
vt 0.623356 0.209226
vt 0.613907 0.190706
vt 0.623356 0.228124
vt 0.542154 0.130000
vt 0.617057 0.209226
vt 0.606051 0.195241
vt 0.617057 0.228124
vt 0.542154 0.370000
vt 0.610757 0.209226
vt 0.606051 0.204312
vt 0.610757 0.228124
vt 0.750000 0.250000
vt 0.903727 0.131615
vt 0.971557 0.154225
vt 0.750000 0.490000
vt 0.881116 0.154225
vt 0.971557 0.199445
vt 0.903727 0.153320
vt 0.881116 0.199445
vt 0.957846 0.370000
vt 0.956483 0.154225
vt 0.922524 0.142468
vt 0.956483 0.199445
vt 0.957846 0.130000
vt 0.941410 0.154225
vt 0.922524 0.120762
vt 0.941410 0.199445
vt 0.750000 0.010000
vt 0.926337 0.154225
vt 0.903727 0.109909
vt 0.926337 0.199445
vt 0.542154 0.130000
vt 0.911263 0.154225
vt 0.884929 0.120762
vt 0.911263 0.199445
vt 0.542154 0.370000
vt 0.896190 0.154225
vt 0.884929 0.142468
vt 0.896190 0.199445
vt 0.543250 0.776979
vt 0.702710 0.962069
vt 0.755779 0.990455
vt 0.700835 0.689655
vt 0.452710 0.962069
vt 0.757150 0.692026
vt 0.543250 0.943767
vt 0.711566 0.736315
vt 0.444833 0.986725
vt 0.461566 0.736315
vt 0.700835 0.939655
vt 0.446204 0.688296
s 0
usemtl Material
f 1/1/1 3/4/1 5/11/1
f 2/2/2 21/49/2 22/50/2
f 3/3/3 4/6/3 6/13/3 5/12/3
f 1/1/1 5/11/1 7/15/1
f 2/2/2 23/52/2 21/49/2
f 5/12/4 6/13/4 8/17/4 7/16/4
f 1/1/1 7/15/1 9/19/1
f 2/2/2 24/53/2 23/52/2
f 7/16/5 8/17/5 10/21/5 9/20/5
f 1/1/1 9/19/1 11/23/1
f 2/2/2 25/54/2 24/53/2
f 9/20/6 10/21/6 12/25/6 11/24/6
f 1/1/1 11/23/1 13/29/1
f 2/2/2 26/56/2 25/54/2
f 11/24/7 12/25/7 14/31/7 13/30/7
f 1/1/1 13/29/1 15/35/1
f 2/2/2 27/58/2 26/56/2
f 13/30/8 14/31/8 16/37/8 15/36/8
f 1/1/1 15/35/1 17/39/1
f 2/2/2 28/59/2 27/58/2
f 15/36/9 16/37/9 18/41/9 17/40/9
f 1/1/1 17/39/1 19/43/1
f 2/2/2 29/60/2 28/59/2
f 17/40/10 18/41/10 20/45/10 19/44/10
f 1/1/1 19/43/1 3/4/1
f 2/2/2 22/50/2 29/60/2
f 19/44/11 20/45/11 4/7/11 3/5/11
f 22/50/2 21/49/2 6/14/2 4/8/2
f 21/49/2 23/52/2 8/18/2 6/14/2
f 23/52/2 24/53/2 10/22/2 8/18/2
f 24/53/2 25/54/2 12/26/2 10/22/2
f 14/32/12 12/27/12 39/87/12 38/83/12
f 26/56/2 27/58/2 16/38/2 14/33/2
f 27/58/2 28/59/2 18/42/2 16/38/2
f 28/59/2 29/60/2 20/46/2 18/42/2
f 4/9/13 20/47/13 31/66/13 30/62/13
f 31/67/14 33/74/14 37/82/14 35/78/14
f 29/61/15 22/51/15 32/70/15 33/73/15
f 20/48/16 29/61/16 33/73/16 31/68/16
f 22/51/17 4/10/17 30/63/17 32/70/17
f 37/82/2 36/80/2 34/75/2 35/78/2
f 33/74/18 32/71/18 36/80/18 37/82/18
f 32/72/19 30/64/19 34/76/19 36/81/19
f 30/65/20 31/69/20 35/79/20 34/77/20
f 39/88/21 41/94/21 45/100/21 43/97/21
f 26/57/22 14/34/22 38/84/22 40/91/22
f 25/55/23 26/57/23 40/91/23 41/93/23
f 12/28/24 25/55/24 41/93/24 39/89/24
f 45/100/2 44/99/2 42/96/2 43/97/2
f 38/85/25 39/90/25 43/98/25 42/95/25
f 40/92/26 38/86/26 42/96/26 44/99/26
f 41/94/27 40/92/27 44/99/27 45/100/27
f 96/205/2 50/109/2 52/115/2 98/211/2
f 99/214/28 98/212/28 52/116/28 53/118/28
f 53/119/29 52/117/29 50/110/29 51/112/29
f 51/113/1 97/208/1 99/215/1 53/120/1
f 47/103/30 46/101/30 48/105/30 49/107/30
f 51/114/31 50/111/31 96/206/31 97/209/31
f 54/121/29 56/124/29 58/129/29
f 55/122/30 59/131/30 57/127/30
f 56/123/32 57/126/32 59/132/32 58/130/32
f 54/121/29 58/129/29 60/133/29
f 55/122/30 61/135/30 59/131/30
f 58/130/33 59/132/33 61/136/33 60/134/33
f 54/121/29 60/133/29 62/137/29
f 55/122/30 63/139/30 61/135/30
f 60/134/34 61/136/34 63/140/34 62/138/34
f 54/121/29 62/137/29 64/141/29
f 55/122/30 65/143/30 63/139/30
f 62/138/35 63/140/35 65/144/35 64/142/35
f 54/121/29 64/141/29 66/145/29
f 55/122/30 67/147/30 65/143/30
f 64/142/36 65/144/36 67/148/36 66/146/36
f 54/121/29 66/145/29 56/124/29
f 55/122/30 57/127/30 67/147/30
f 66/146/37 67/148/37 57/128/37 56/125/37
f 68/149/38 70/152/38 72/157/38
f 69/150/39 73/159/39 71/155/39
f 70/151/40 71/154/40 73/160/40 72/158/40
f 68/149/38 72/157/38 74/161/38
f 69/150/39 75/163/39 73/159/39
f 72/158/41 73/160/41 75/164/41 74/162/41
f 68/149/38 74/161/38 76/165/38
f 69/150/39 77/167/39 75/163/39
f 74/162/42 75/164/42 77/168/42 76/166/42
f 68/149/38 76/165/38 78/169/38
f 69/150/39 79/171/39 77/167/39
f 76/166/43 77/168/43 79/172/43 78/170/43
f 68/149/38 78/169/38 80/173/38
f 69/150/39 81/175/39 79/171/39
f 78/170/44 79/172/44 81/176/44 80/174/44
f 68/149/38 80/173/38 70/152/38
f 69/150/39 71/155/39 81/175/39
f 80/174/45 81/176/45 71/156/45 70/153/45
f 82/177/46 84/180/46 86/185/46
f 83/178/39 87/187/39 85/183/39
f 84/179/47 85/182/47 87/188/47 86/186/47
f 82/177/48 86/185/48 88/189/48
f 83/178/39 89/191/39 87/187/39
f 86/186/49 87/188/49 89/192/49 88/190/49
f 82/177/50 88/189/50 90/193/50
f 83/178/39 91/195/39 89/191/39
f 88/190/51 89/192/51 91/196/51 90/194/51
f 82/177/52 90/193/52 92/197/52
f 83/178/39 93/199/39 91/195/39
f 90/194/53 91/196/53 93/200/53 92/198/53
f 82/177/54 92/197/54 94/201/54
f 83/178/39 95/203/39 93/199/39
f 92/198/55 93/200/55 95/204/55 94/202/55
f 82/177/56 94/201/56 84/180/56
f 83/178/39 85/183/39 95/203/39
f 94/202/57 95/204/57 85/184/57 84/181/57
f 46/102/30 47/104/30 97/210/30 96/207/30
f 49/108/30 48/106/30 98/213/30 99/216/30
f 48/106/30 46/102/30 96/207/30 98/213/30
f 47/104/30 49/108/30 99/216/30 97/210/30
